<?xml version="1.0" encoding="utf-8"?>
<!-- Generator: Adobe Illustrator 17.0.0, SVG Export Plug-In . SVG Version: 6.00 Build 0)  -->
<!DOCTYPE svg PUBLIC "-//W3C//DTD SVG 1.1//EN" "http://www.w3.org/Graphics/SVG/1.1/DTD/svg11.dtd">
<svg version="1.1" id="Layer_1" xmlns="http://www.w3.org/2000/svg" xmlns:xlink="http://www.w3.org/1999/xlink" x="0px" y="0px"
	 width="400px" height="400px" viewBox="0 0 400 400" enable-background="new 0 0 400 400" xml:space="preserve">
<rect fill="#FF6F00" width="400" height="400"/>
<circle fill="#FFC107" cx="200" cy="200" r="189.654"/>
<g>
	<g>
		<path fill="#FFD54F" d="M134.987,120.023c0-6.672,29.101-12.081,65.006-12.081S265,113.351,265,120.023v206.233
			c0,6.672-29.101,12.081-65.006,12.081s-65.009-5.409-65.009-12.081L134.987,120.023z"/>
		<path fill="#FFECB3" d="M232.553,146.512c19.427,2.108,32.452,6.04,32.452,10.511l-0.002,110c0-4.303-13.532-8.364-31.753-10.523
			L232.553,146.512z"/>
		<ellipse fill="#FFB300" cx="200.413" cy="322.729" rx="58.337" ry="11.198"/>
		<path fill="#FFFFFF" d="M264.999,156.879c0,6.672-28.999,12.145-64.999,12.145v110c36,0,65.003-5.473,65.003-12.145
			L264.999,156.879z"/>
	</g>
	<path fill="#FFECB3" d="M224,198.129c24-1.835,41-6.223,41-11.256v-10c0,5.064-17,9.441-41,11.256V198.129z"/>
	<path fill="#FFECB3" d="M224,213.129c24-1.835,41-6.223,41-11.256v-10c0,5.064-17,9.441-41,11.256V213.129z"/>
	<path fill="#FFECB3" d="M224,268.129c24-1.835,41-6.223,41-11.256v-44c0,5.064-17,9.441-41,11.256V268.129z"/>
	<path fill="#FFFFFF" d="M142,132c0,0-3.167,186.285,0,191.753s6.714,7.328,9.75,6.323s1.837-4.803,1.25-7.691
		C146,288.889,147,132,147,132H142z"/>
	<path fill="#FF6F00" d="M119,75.223c0-9.437,36.091-17.088,81-17.088s81,7.651,81,17.088v43.604c0,9.437-36.091,17.088-81,17.088
		s-81-7.651-81-17.088V75.223z"/>
</g>
<path fill="#FF8F00" d="M273.409,76.5c0,7.042-32.422,10.75-72.416,10.75s-72.416-3.708-72.416-10.75s32.422-12.75,72.416-12.75
	S273.409,69.458,273.409,76.5z"/>
</svg>
