<?xml version="1.0" encoding="utf-8"?>
<!-- Generator: Adobe Illustrator 17.0.0, SVG Export Plug-In . SVG Version: 6.00 Build 0)  -->
<!DOCTYPE svg PUBLIC "-//W3C//DTD SVG 1.1//EN" "http://www.w3.org/Graphics/SVG/1.1/DTD/svg11.dtd">
<svg version="1.1" id="Layer_1" xmlns="http://www.w3.org/2000/svg" xmlns:xlink="http://www.w3.org/1999/xlink" x="0px" y="0px"
	 width="411.623px" height="152.688px" viewBox="0 0 411.623 152.688" enable-background="new 0 0 411.623 152.688"
	 xml:space="preserve">
<g>
	<g>
		<path fill="#FF6F00" d="M87.298,82.118c0,0-3.853,3.708-28.5,8.24c-24.647,4.532-28.5,8.24-28.5,8.24V87.391
			c0,0,3.853-3.708,28.5-8.24s28.5-8.24,28.5-8.24V82.118z"/>
		<path fill="#FF6F00" d="M87.893,48.816c0,0-3.853,3.708-28.5,8.24s-28.5,8.24-28.5,8.24V54.089c0,0,3.853-3.708,28.5-8.24
			s28.5-8.24,28.5-8.24V48.816z"/>
		<path fill="#FFC107" d="M87.298,103.872c0,0-3.853-3.708-28.5-8.24s-28.5-8.24-28.5-8.24v11.207c0,0,3.853,3.708,28.5,8.24
			s28.5,8.24,28.5,8.24V103.872z"/>
		<path fill="#FFC107" d="M87.893,70.57c0,0-3.853-3.708-28.5-8.24s-28.5-8.24-28.5-8.24v11.207c0,0,3.853,3.708,28.5,8.24
			s28.5,8.24,28.5,8.24V70.57z"/>
		<g>
			<path fill="#80DEEA" d="M142.032,115.079l-4.18-18.361h-18.959l-4.18,18.361h-13.534l18.013-73.047h18.361l18.063,73.047H142.032
				z M135.314,84.725l-3.881-16.918c-0.232-1.028-0.755-3.607-1.567-7.738c-0.813-4.13-1.302-6.892-1.468-8.285
				c-0.431,2.853-0.979,5.996-1.642,9.429c-0.664,3.434-2.388,11.271-5.175,23.511L135.314,84.725L135.314,84.725z"/>
			<path fill="#80DEEA" d="M188.01,115.079l-13.833-61.951h-0.547c0.63,4.777,0.946,9.156,0.946,13.137v48.814h-12.54V42.33h20.799
				l12.44,57.173h0.398l12.34-57.173h21.098v72.749h-12.838V65.767c0-4.081,0.232-8.26,0.697-12.54h-0.398l-13.784,61.851
				L188.01,115.079L188.01,115.079z"/>
			<path fill="#80DEEA" d="M241.949,42.33h18.561c7.563,0,13.07,1.468,16.519,4.404c3.451,2.936,5.176,7.605,5.176,14.007
				c0,4.213-0.912,7.738-2.736,10.574s-4.313,4.553-7.465,5.15v0.498c4.113,1.029,7.082,2.953,8.908,5.772
				c1.824,2.82,2.736,6.568,2.736,11.246c0,6.602-1.768,11.768-5.299,15.5c-3.533,3.731-8.369,5.598-14.506,5.598h-21.894V42.33z
				 M254.687,71.589h6.22c2.853,0,4.859-0.763,6.021-2.289c1.161-1.525,1.741-3.798,1.741-6.817s-0.664-5.183-1.99-6.494
				c-1.327-1.31-3.417-1.965-6.27-1.965h-5.723v17.565H254.687z M254.687,82.885v20.352h6.817c2.819,0,4.917-0.862,6.294-2.588
				c1.376-1.725,2.065-4.395,2.065-8.011c0-6.501-2.854-9.753-8.559-9.753C261.304,82.885,254.687,82.885,254.687,82.885z"/>
			<path fill="#80DEEA" d="M326.392,115.079H293.6V42.33h32.792v11.694h-19.258V71.34h17.864v11.744h-17.864v20.152h19.258V115.079z
				"/>
			<path fill="#80DEEA" d="M350.523,86.766v28.313h-13.534V42.33h17.715c7.496,0,13.028,1.775,16.595,5.324
				c3.565,3.55,5.349,8.974,5.349,16.271c0,9.189-3.102,15.608-9.305,19.257l13.982,31.896h-14.48l-11.494-28.313L350.523,86.766
				L350.523,86.766z M350.523,75.122h3.483c3.185,0,5.474-0.903,6.867-2.712c1.394-1.808,2.09-4.503,2.09-8.086
				c0-3.715-0.738-6.36-2.215-7.937c-1.476-1.575-3.757-2.363-6.842-2.363h-3.384v21.098H350.523z"/>
		</g>
	</g>
</g>
</svg>
