<?xml version="1.0" encoding="UTF-8" standalone="no"?>
<!-- Generator: Adobe Illustrator 15.1.0, SVG Export Plug-In . SVG Version: 6.00 Build 0)  -->

<svg
   xmlns:dc="http://purl.org/dc/elements/1.1/"
   xmlns:cc="http://creativecommons.org/ns#"
   xmlns:rdf="http://www.w3.org/1999/02/22-rdf-syntax-ns#"
   xmlns:svg="http://www.w3.org/2000/svg"
   xmlns="http://www.w3.org/2000/svg"
   xmlns:xlink="http://www.w3.org/1999/xlink"
   xmlns:sodipodi="http://sodipodi.sourceforge.net/DTD/sodipodi-0.dtd"
   xmlns:inkscape="http://www.inkscape.org/namespaces/inkscape"
   version="1.1"
   id="Layer_1"
   x="0px"
   y="0px"
   width="98.06543"
   height="28.551979"
   viewBox="0 0 98.065439 28.551979"
   enable-background="new 0 0 396 222"
   xml:space="preserve"
   inkscape:version="0.48.0 r9654"
   sodipodi:docname="Mylan_Logo.svg"><metadata
   id="metadata3074"><rdf:RDF><cc:Work
       rdf:about=""><dc:format>image/svg+xml</dc:format><dc:type
         rdf:resource="http://purl.org/dc/dcmitype/StillImage" /></cc:Work></rdf:RDF></metadata><defs
   id="defs3072" /><sodipodi:namedview
   pagecolor="#ffffff"
   bordercolor="#666666"
   borderopacity="1"
   objecttolerance="10"
   gridtolerance="10"
   guidetolerance="10"
   inkscape:pageopacity="0"
   inkscape:pageshadow="2"
   inkscape:window-width="1366"
   inkscape:window-height="706"
   id="namedview3070"
   showgrid="false"
   fit-margin-left="2"
   fit-margin-top="2"
   fit-margin-right="1"
   fit-margin-bottom="1"
   inkscape:zoom="1.0428039"
   inkscape:cx="106.066"
   inkscape:cy="-9.9990223"
   inkscape:window-x="-8"
   inkscape:window-y="-8"
   inkscape:window-maximized="1"
   inkscape:current-layer="Layer_1" />
<g
   id="g3040"
   transform="matrix(0.65593587,0,0,0.65593587,-59.61468,-46.833771)">
	<defs
   id="defs3042">
		<rect
   id="SVGID_1_"
   x="90.667"
   y="73"
   width="215.349"
   height="75.403" />
	</defs>
	<clipPath
   id="SVGID_2_">
		<use
   xlink:href="#SVGID_1_"
   overflow="visible"
   id="use3046"
   style="overflow:visible"
   x="0"
   y="0"
   width="396"
   height="222" />
	</clipPath>
	<g
   clip-path="url(#SVGID_2_)"
   id="g3048">
		<defs
   id="defs3050">
			<rect
   id="SVGID_3_"
   x="93.933998"
   y="74.448997"
   width="200.586"
   height="61.196999" />
		</defs>
		<clipPath
   id="SVGID_4_">
			<use
   xlink:href="#SVGID_3_"
   overflow="visible"
   id="use3054"
   style="overflow:visible"
   x="0"
   y="0"
   width="396"
   height="222" />
		</clipPath>
		<polyline
   clip-path="url(#SVGID_4_)"
   points="137.47,80.01 145.701,80.01 151.928,98.311 152.001,98.311 157.89,80.01     166.126,80.01 166.126,106.62 160.648,106.62 160.648,87.764 160.572,87.764 154.054,106.62 149.542,106.62 143.024,87.949     142.945,87.949 142.945,106.62 137.47,106.62   "
   id="polyline3056" />
		<path
   clip-path="url(#SVGID_4_)"
   d="m 180.501,109.044 c -1.153,3.092 -2.981,4.36 -6.632,4.36 -1.08,0 -2.163,-0.076 -3.241,-0.188 v -4.36 c 1.005,0.074 2.047,0.223 3.095,0.188 1.824,-0.188 2.421,-2.088 1.824,-3.616 L 168.761,87.35 h 5.667 l 4.36,13.193 h 0.076 l 4.211,-13.193 h 5.475"
   id="path3058"
   inkscape:connector-curvature="0" />
		<rect
   x="190.828"
   y="80.011002"
   clip-path="url(#SVGID_4_)"
   width="5.2909999"
   height="26.608999"
   id="rect3060" />
		<path
   clip-path="url(#SVGID_4_)"
   d="m 199.623,93.278 c 0.297,-4.958 4.732,-6.448 9.057,-6.448 3.842,0 8.457,0.857 8.457,5.479 v 10.024 c 0,1.754 0.189,3.502 0.673,4.287 h -5.366 c -0.183,-0.595 -0.335,-1.23 -0.372,-1.862 -1.679,1.751 -4.138,2.383 -6.485,2.383 -3.652,0 -6.563,-1.827 -6.563,-5.773 0,-4.363 3.285,-5.405 6.563,-5.853 3.244,-0.485 6.262,-0.372 6.262,-2.536 0,-2.272 -1.568,-2.607 -3.428,-2.607 -2.018,0 -3.32,0.821 -3.505,2.907 m 6.932,3.913 c -0.895,0.782 -2.761,0.82 -4.397,1.119 -1.64,0.336 -3.133,0.893 -3.133,2.831 0,1.974 1.528,2.46 3.241,2.46 4.137,0 4.289,-3.279 4.289,-4.433 v -1.977 z"
   id="path3062"
   inkscape:connector-curvature="0" />
		<path
   clip-path="url(#SVGID_4_)"
   d="m 220.796,87.351 h 5.028 v 2.685 h 0.113 c 1.342,-2.162 3.654,-3.206 5.889,-3.206 5.627,0 7.039,3.168 7.039,7.939 v 11.851 h -5.288 V 95.737 c 0,-3.167 -0.934,-4.732 -3.394,-4.732 -2.87,0 -4.099,1.602 -4.099,5.514 v 10.102 h -5.289"
   id="path3064"
   inkscape:connector-curvature="0" />
		<path
   clip-path="url(#SVGID_4_)"
   d="m 99.032,79.994 v 0.535 c 0.052,0 0.068,0.003 0.13,0.003 h 0.002 c 0.73,0 1.325,0.735 1.325,1.354 l 0.011,22.288 c 0,1.686 1.396,2.965 3.127,2.965 h 0.021 c 1.654,0 3.149,-1.304 3.149,-2.965 V 82.307 c 0,-0.748 0.592,-1.354 1.325,-1.354 h 0.005 c 0.728,0 1.325,0.606 1.319,1.354 l 0.017,21.868 c 0,1.708 1.477,2.965 3.135,2.965 h 0.008 c 1.734,0 3.144,-1.257 3.144,-2.965 V 82.307 c 0,-0.621 0.595,-1.354 1.325,-1.354 h 0.002 c 0.733,0 1.322,0.606 1.322,1.354 v 21.868 c 0,1.686 1.415,2.965 3.144,2.965 h 0.011 c 1.729,0 3.138,-1.257 3.138,-2.965 V 81.886 c 0,-0.746 0.594,-1.354 1.325,-1.354 h 0.005 c 0.043,0 0.076,-0.007 0.2,-0.007 v -0.53"
   id="path3066"
   inkscape:connector-curvature="0"
   style="fill:#00bbe5" />
		<path
   clip-path="url(#SVGID_4_)"
   d="M 127.146,74.449 H 97.949 c -2.21,0.001 -4.015,1.807 -4.015,4.014 v 29.2 c 0,2.208 1.805,4.015 4.015,4.015 h 29.197 c 2.212,0 4.015,-1.807 4.015,-4.015 v -29.2 c 0,-2.208 -1.803,-4.013 -4.015,-4.014 m -29.29,1.505 h 29.387 c 1.327,0.002 2.411,1.086 2.414,2.417 v 29.387 c -0.003,1.33 -1.086,2.41 -2.414,2.413 H 97.856 c -1.333,-0.003 -2.416,-1.083 -2.416,-2.413 V 78.371 c 0,-1.33 1.083,-2.414 2.416,-2.417 z"
   id="path3068"
   inkscape:connector-curvature="0" />
	</g>
</g>
</svg>