<?xml version="1.0" encoding="utf-8"?>
<!-- Generator: Adobe Illustrator 17.0.0, SVG Export Plug-In . SVG Version: 6.00 Build 0)  -->
<!DOCTYPE svg PUBLIC "-//W3C//DTD SVG 1.1//EN" "http://www.w3.org/Graphics/SVG/1.1/DTD/svg11.dtd">
<svg version="1.1" id="Layer_1" xmlns="http://www.w3.org/2000/svg" xmlns:xlink="http://www.w3.org/1999/xlink" x="0px" y="0px"
	 width="21px" height="59.009px" viewBox="0 0 21 59.009" enable-background="new 0 0 21 59.009" xml:space="preserve">
<path fill="#E0F7FA" d="M20.993,48.504c0,5.801-4.833,10.504-10.496,10.504S0,54.306,0,48.504v-38C0,4.703,4.833,0,10.496,0
	s10.375,4.703,10.375,10.504L20.993,48.504z"/>
<path fill="#FFFFFF" d="M5.438,10.476C5.438,4.813,2,4.703,2,10.504v38c0,5.801,3.333,4.701,3.333,0.118L5.438,10.476z"/>
<path fill="#00E5FF" d="M21,30.706v17.799c0,5.801-4.699,10.504-10.5,10.504S0,54.306,0,48.504V30.706c0,0,0,2,10.5,2
	S21,30.706,21,30.706z"/>
<path fill="#18FFFF" d="M18.783,48.455c0,4.609-3.736,8.345-8.345,8.345s-8.345-3.736-8.345-8.345s3.383-2.004,7.992-2.004
	S18.783,43.846,18.783,48.455z"/>
</svg>
